<svg width="234" height="201" viewBox="0 0 234 201" fill="none" xmlns="http://www.w3.org/2000/svg">
<g clip-path="url(#clip0_3_140)">
<path d="M69.0244 198.179C72.775 195.01 75.0532 190.004 74.4557 185.13C73.8583 180.256 70.1579 175.776 65.3579 174.741C60.558 173.706 55.0863 176.571 53.6284 181.26C52.8261 172.22 51.9015 162.801 47.0953 155.103C42.7434 148.132 35.2058 143.144 27.0368 142.252C18.8678 141.36 10.2668 144.73 5.17212 151.177C0.0773998 157.625 -1.17002 166.999 2.39819 174.401C5.02676 179.854 9.86953 183.913 14.9435 187.214C31.3395 197.793 51.0043 202.095 70.3197 199.329" fill="#F2F2F2"/>
<path d="M13.2503 144.916C19.9908 150.407 26.1744 156.547 31.7119 163.249C40.3779 173.701 47.3905 185.42 52.5055 197.997C52.8799 198.915 51.39 199.314 51.0197 198.407C47.767 190.455 43.7428 182.841 39.0047 175.674C31.6162 164.478 22.5643 154.474 12.1608 146.006C11.3916 145.38 12.4875 144.295 13.2503 144.916Z" fill="white"/>
<path d="M71.615 198.179C67.8644 195.01 65.5863 190.004 66.1837 185.13C66.7812 180.256 70.4816 175.776 75.2815 174.741C80.0815 173.706 85.5532 176.571 87.0111 181.26C87.8134 172.22 88.738 162.801 93.5442 155.103C97.8961 148.132 105.434 143.144 113.603 142.252C121.772 141.36 130.373 144.73 135.467 151.177C140.562 157.625 141.809 166.999 138.241 174.401C135.613 179.854 130.77 183.913 125.696 187.214C109.3 197.793 89.6352 202.095 70.3197 199.329" fill="#F2F2F2"/>
<path d="M127.389 144.916C120.649 150.407 114.465 156.547 108.928 163.249C100.262 173.701 93.2489 185.42 88.134 197.997C87.7595 198.915 89.2494 199.314 89.6197 198.407C97.9887 177.966 111.349 159.95 128.479 146.006C129.248 145.38 128.152 144.295 127.389 144.916Z" fill="white"/>
<path d="M82.7447 90.236C89.6833 90.236 95.308 84.6112 95.308 77.6727C95.308 70.7342 89.6833 65.1094 82.7447 65.1094C75.8062 65.1094 70.1814 70.7342 70.1814 77.6727C70.1814 84.6112 75.8062 90.236 82.7447 90.236Z" fill="#F2F2F2"/>
<path d="M44.0086 34.3647H130.566V39.1004H55.0585C50.6189 39.1004 46.2228 39.9749 42.1211 41.6738C38.0195 43.3727 34.2926 45.8629 31.1534 49.0022C28.0141 52.1415 25.5239 55.8683 23.8249 59.9699C22.126 64.0716 21.2515 68.4677 21.2515 72.9073V126.71H11.7802C11.3616 126.71 10.9601 126.544 10.664 126.248C10.368 125.952 10.2017 125.55 10.2017 125.132V68.1716C10.2017 63.732 11.0761 59.3359 12.7751 55.2343C14.474 51.1326 16.9642 47.4058 20.1035 44.2665C23.2427 41.1273 26.9696 38.6371 31.0712 36.9381C35.1729 35.2392 39.569 34.3647 44.0086 34.3647Z" fill="#F2F2F2"/>
<path d="M60.6576 198.443V126.507H81.7315V198.443C81.731 198.926 81.5387 199.39 81.1968 199.732C80.8549 200.073 80.3913 200.266 79.9078 200.266H62.4813C61.9978 200.266 61.5342 200.073 61.1923 199.732C60.8504 199.39 60.6581 198.926 60.6576 198.443Z" fill="#20201E"/>
<path d="M5.74368 125.089V66.5949C5.7542 57.283 9.45799 48.3554 16.0425 41.7709C22.627 35.1864 31.5545 31.4826 40.8664 31.472H130.161V127.115H7.77003C7.23279 127.115 6.71775 126.901 6.33787 126.521C5.95799 126.141 5.7443 125.626 5.74368 125.089ZM129.351 32.2826H40.8664C31.7694 32.2929 23.0479 35.9112 16.6154 42.3438C10.1828 48.7764 6.5645 57.4978 6.55422 66.5949V125.089C6.55457 125.411 6.68278 125.72 6.91071 125.948C7.13864 126.176 7.44768 126.305 7.77003 126.305H129.351V32.2826Z" fill="#3F3D56"/>
<path d="M82.7447 84.1569C80.8107 84.1548 78.9565 83.3855 77.5889 82.0179C76.2213 80.6503 75.4521 78.7961 75.4499 76.8621V24.5825C75.4495 24.2601 75.3213 23.9511 75.0934 23.7232C74.8655 23.4952 74.5564 23.367 74.2341 23.3667H45.8653C45.328 23.366 44.813 23.1524 44.4331 22.7725C44.0532 22.3926 43.8396 21.8775 43.8389 21.3403V2.2927C43.8396 1.75547 44.0532 1.24042 44.4331 0.860544C44.813 0.480666 45.328 0.26698 45.8653 0.266357H88.0132C88.5504 0.266972 89.0655 0.480658 89.4454 0.860538C89.8252 1.24042 90.0389 1.75547 90.0396 2.2927V76.8621C90.0374 78.7961 89.2681 80.6503 87.9005 82.0179C86.533 83.3855 84.6788 84.1548 82.7447 84.1569Z" fill="#20201E"/>
<path d="M133.403 30.6615C139.517 30.6487 145.385 33.0651 149.718 37.3791C154.05 41.6932 156.491 47.5514 156.504 53.6652V120.255H201.894C203.717 120.251 205.467 120.972 206.759 122.258C208.051 123.545 208.779 125.292 208.783 127.115H110.303V53.6652C110.316 47.5514 112.757 41.6932 117.089 37.3791C121.421 33.0651 127.29 30.6487 133.403 30.6615Z" fill="#20201E"/>
<path d="M127.86 68.5815L132.643 88.3408L226.212 65.6897L221.429 45.9304C221.371 45.6888 221.253 45.4657 221.086 45.2819C220.919 45.098 220.708 44.9593 220.473 44.8787C220.3 44.8177 220.116 44.7901 219.933 44.7973L165.846 16.7925C165.529 16.6307 165.165 16.5874 164.819 16.6706C164.473 16.7538 164.168 16.9579 163.959 17.2461L137.892 53.5961L128.065 67.3035C128.047 67.3275 128.035 67.355 128.029 67.3843C128.022 67.4135 128.023 67.4438 128.029 67.473C127.829 67.8058 127.768 68.2041 127.86 68.5815Z" fill="white"/>
<path d="M128.029 67.473C128.034 67.4987 128.043 67.5232 128.058 67.5452C128.072 67.5671 128.09 67.5861 128.111 67.601C128.137 67.6184 128.165 67.6304 128.196 67.6364C128.226 67.6423 128.257 67.6421 128.287 67.6356C128.336 67.6226 128.379 67.5929 128.408 67.5516L128.442 67.5049L128.954 66.7893L138.246 53.8352L164.305 17.4935C164.454 17.2876 164.671 17.1418 164.918 17.0826C165.165 17.0234 165.425 17.0547 165.651 17.1708L219.319 44.9587L219.801 45.2087C219.82 45.2169 219.84 45.2239 219.86 45.2296C219.897 45.223 219.934 45.2195 219.97 45.2191C220.021 45.2022 220.063 45.1667 220.088 45.1199C220.101 45.0952 220.109 45.0682 220.112 45.0404C220.114 45.0126 220.111 44.9846 220.103 44.9579C220.095 44.9312 220.081 44.9064 220.064 44.885C220.046 44.8635 220.024 44.8457 219.999 44.8327L219.933 44.7973L165.846 16.7925C165.529 16.6307 165.165 16.5874 164.819 16.6706C164.473 16.7538 164.168 16.9579 163.959 17.2461L137.892 53.5961L128.065 67.3035C128.047 67.3275 128.035 67.355 128.029 67.3843C128.022 67.4135 128.023 67.4438 128.029 67.473Z" fill="#3F3D56"/>
<path d="M156.131 69.4877L158.214 69.7188L173.672 71.4312L183.919 72.5657L184.524 72.633L197.312 62.6452L197.801 62.2626L200.822 59.9039L211.567 51.5123L211.631 50.9229L215.453 16.4288C215.505 15.9538 215.367 15.4775 215.068 15.1044C214.77 14.7313 214.336 14.4917 213.861 14.4383L162.855 8.78815C162.38 8.73628 161.904 8.87473 161.531 9.17319C161.158 9.47164 160.918 9.90578 160.865 10.3805L158.17 34.7119L156.675 48.2016L155.337 60.2698L154.717 65.8744L154.536 67.4978C154.485 67.9729 154.624 68.4492 154.922 68.8222C155.221 69.1952 155.656 69.4345 156.131 69.4877Z" fill="#E6E6E6"/>
<path d="M170.147 39.2523L192.241 41.6993L200.076 42.5669C200.422 42.6052 200.772 42.575 201.106 42.478C201.441 42.381 201.753 42.2191 202.024 42.0016C202.296 41.7841 202.522 41.5152 202.69 41.2103C202.858 40.9053 202.964 40.5703 203.002 40.2244C203.04 39.8785 203.01 39.5284 202.913 39.1941C202.816 38.8599 202.654 38.548 202.437 38.2763C202.219 38.0046 201.95 37.7784 201.646 37.6106C201.341 37.4428 201.006 37.3367 200.66 37.2984L190.914 36.2191L170.732 33.9813C170.033 33.9041 169.333 34.1075 168.784 34.5469C168.235 34.9863 167.883 35.6256 167.805 36.3244C167.728 37.0231 167.931 37.7241 168.37 38.2731C168.809 38.8221 169.448 39.1743 170.147 39.2523Z" fill="white"/>
<path d="M168.889 49.0257C168.946 49.0359 169.003 49.0461 169.061 49.0517L194.709 51.893L198.991 52.3683C199.69 52.4456 200.391 52.2421 200.94 51.8026C201.488 51.363 201.84 50.7235 201.918 50.0246C201.995 49.3256 201.791 48.6246 201.352 48.0758C200.912 47.5269 200.273 47.1751 199.574 47.0978L193.382 46.4128L173.066 44.1616L169.647 43.7827C168.963 43.7064 168.276 43.899 167.732 44.3198C167.188 44.7406 166.828 45.3565 166.73 46.0374C166.632 46.7183 166.802 47.4108 167.205 47.9685C167.608 48.5261 168.212 48.9053 168.889 49.0257Z" fill="white"/>
<path d="M165.986 57.692C166.196 58.0409 166.484 58.3367 166.827 58.5564C167.17 58.776 167.559 58.9137 167.964 58.9586L178.476 60.1228L197.199 62.197L197.203 62.196L197.801 62.2627L200.822 59.904C200.84 59.7248 200.84 59.5442 200.822 59.365C200.758 58.7633 200.491 58.2014 200.065 57.7722C199.638 57.343 199.078 57.0723 198.477 57.0047L195.876 56.7158L185.559 55.5741L178.136 54.7508L168.547 53.6881C168.056 53.6337 167.559 53.7178 167.113 53.931C166.667 54.1442 166.289 54.4779 166.023 54.8944C165.756 55.3109 165.612 55.7936 165.605 56.288C165.599 56.7823 165.731 57.2687 165.986 57.692Z" fill="white"/>
<path d="M180.751 27.3057L186.249 27.9145L188.677 28.1842L192.344 28.5901C193.043 28.6674 193.744 28.4639 194.293 28.0244C194.842 27.5848 195.194 26.9453 195.271 26.2463C195.349 25.5474 195.145 24.8464 194.705 24.2976C194.266 23.7487 193.626 23.3969 192.927 23.3196L181.337 22.0367C180.638 21.9591 179.937 22.1622 179.388 22.6013C178.839 23.0405 178.487 23.6797 178.41 24.3784C178.332 25.0771 178.535 25.7781 178.974 26.327C179.413 26.876 180.053 27.228 180.751 27.3057Z" fill="white"/>
<path d="M135.801 41.9814L142.503 69.6669L153.689 71.7938L164.036 73.7638L175.138 75.8762L178.685 76.5512C178.893 76.5905 179.107 76.5851 179.312 76.5353C179.518 76.4856 179.71 76.3927 179.877 76.2628L182.723 74.0401L184.524 72.633L197.312 62.6453L189.181 29.0592C189.101 28.7251 188.926 28.4213 188.677 28.1842C188.459 27.9745 188.191 27.8231 187.899 27.744C187.607 27.6648 187.299 27.6605 187.005 27.7315L137.129 39.8055C136.664 39.9182 136.264 40.2107 136.015 40.6187C135.766 41.0267 135.689 41.5168 135.801 41.9814Z" fill="#20201E"/>
<path d="M151.169 64.0062C151.335 64.6891 151.765 65.2783 152.365 65.6444C152.965 66.0105 153.686 66.1235 154.369 65.9588L183.635 58.874C184.318 58.7077 184.907 58.2775 185.273 57.6776C185.639 57.0778 185.752 56.3573 185.588 55.6741C185.58 55.6402 185.571 55.6068 185.559 55.5741C185.372 54.9154 184.938 54.3546 184.346 54.0093C183.755 53.6639 183.053 53.5608 182.388 53.7215L153.122 60.8063C152.439 60.9722 151.849 61.4024 151.483 62.0023C151.117 62.6023 151.004 63.3229 151.169 64.0062Z" fill="white"/>
<path d="M153.689 71.7937L164.036 73.7637L185.955 68.4576C186.638 68.2922 187.228 67.8622 187.594 67.2621C187.96 66.662 188.073 65.941 187.908 65.2577C187.742 64.5745 187.312 63.9849 186.712 63.6187C186.112 63.2525 185.391 63.1397 184.708 63.3051L155.442 70.3899C154.83 70.5368 154.291 70.8978 153.923 71.4077C153.834 71.5296 153.756 71.6587 153.689 71.7937Z" fill="white"/>
<path d="M175.138 75.8761L178.685 76.5511C178.893 76.5904 179.107 76.585 179.312 76.5352C179.518 76.4855 179.71 76.3926 179.877 76.2627L182.723 74.04L175.138 75.8761Z" fill="white"/>
<path d="M157.066 49.1606C157.232 49.8436 157.662 50.4327 158.262 50.7988C158.862 51.1649 159.583 51.278 160.266 51.1132L171.601 48.3691C172.284 48.2028 172.873 47.7726 173.239 47.1727C173.605 46.5729 173.718 45.8524 173.554 45.1692C173.466 44.8021 173.299 44.4584 173.066 44.1616C172.752 43.7604 172.33 43.458 171.849 43.2905C171.368 43.1229 170.849 43.0973 170.354 43.2166L159.019 45.9607C158.335 46.1262 157.746 46.5563 157.38 47.1563C157.014 47.7564 156.901 48.4774 157.066 49.1606Z" fill="white"/>
<path d="M164.036 73.7635L175.139 75.8764L178.685 76.5518C178.893 76.5906 179.106 76.5849 179.312 76.5352C179.517 76.4856 179.709 76.393 179.876 76.2636L182.724 74.0403L181.725 74.2822L179.615 75.928C179.496 76.0205 179.358 76.0866 179.212 76.1221C179.065 76.1576 178.913 76.1616 178.764 76.1339L176.138 75.6345L165.035 73.5216L164.036 73.7635ZM197.202 62.1976L197.31 62.6441L197.802 62.2612L197.202 62.1976ZM164.036 73.7635L175.139 75.8764L178.685 76.5518C178.893 76.5906 179.106 76.5849 179.312 76.5352C179.517 76.4856 179.709 76.393 179.876 76.2636L182.724 74.0403L181.725 74.2822L179.615 75.928C179.496 76.0205 179.358 76.0866 179.212 76.1221C179.065 76.1576 178.913 76.1616 178.764 76.1339L176.138 75.6345L165.035 73.5216L164.036 73.7635ZM164.036 73.7635L175.139 75.8764L178.685 76.5518C178.893 76.5906 179.106 76.5849 179.312 76.5352C179.517 76.4856 179.709 76.393 179.876 76.2636L182.724 74.0403L181.725 74.2822L179.615 75.928C179.496 76.0205 179.358 76.0866 179.212 76.1221C179.065 76.1576 178.913 76.1616 178.764 76.1339L176.138 75.6345L165.035 73.5216L164.036 73.7635ZM127.86 68.5814L140.389 120.338C140.482 120.721 140.723 121.051 141.059 121.256C141.395 121.461 141.799 121.524 142.181 121.432L232.865 99.4794C233.247 99.3864 233.577 99.1455 233.782 98.8095C233.987 98.4735 234.05 98.0699 233.958 97.6872L221.429 45.9303C221.371 45.6887 221.253 45.4657 221.086 45.2818C220.919 45.0979 220.708 44.9593 220.473 44.8786C220.3 44.8176 220.116 44.79 219.933 44.7973C219.719 44.8035 219.509 44.8587 219.319 44.9587C219.232 45.0002 219.149 45.0515 219.073 45.1115L211.631 50.923L200.822 59.3661L197.201 62.1945L197.202 62.1976L197.199 62.1983L183.92 72.5643L181.725 74.2822L179.615 75.928C179.496 76.0205 179.358 76.0866 179.212 76.1221C179.065 76.1576 178.913 76.1616 178.764 76.1339L176.138 75.6345L165.035 73.5216L153.922 71.4079L129.581 66.7758C129.373 66.7346 129.159 66.7393 128.954 66.7893C128.677 66.8569 128.425 67.0027 128.229 67.2091C128.154 67.2902 128.087 67.3786 128.029 67.4729C127.829 67.8058 127.768 68.2041 127.86 68.5814ZM164.036 73.7635L175.139 75.8764L178.685 76.5518C178.893 76.5906 179.106 76.5849 179.312 76.5352C179.517 76.4856 179.709 76.393 179.876 76.2636L182.724 74.0403L181.725 74.2822L179.615 75.928C179.496 76.0205 179.358 76.0866 179.212 76.1221C179.065 76.1576 178.913 76.1616 178.764 76.1339L176.138 75.6345L165.035 73.5216L164.036 73.7635ZM164.036 73.7635L175.139 75.8764L178.685 76.5518C178.893 76.5906 179.106 76.5849 179.312 76.5352C179.517 76.4856 179.709 76.393 179.876 76.2636L182.724 74.0403L181.725 74.2822L179.615 75.928C179.496 76.0205 179.358 76.0866 179.212 76.1221C179.065 76.1576 178.913 76.1616 178.764 76.1339L176.138 75.6345L165.035 73.5216L164.036 73.7635ZM164.036 73.7635L175.139 75.8764L178.685 76.5518C178.893 76.5906 179.106 76.5849 179.312 76.5352C179.517 76.4856 179.709 76.393 179.876 76.2636L182.724 74.0403L181.725 74.2822L179.615 75.928C179.496 76.0205 179.358 76.0866 179.212 76.1221C179.065 76.1576 178.913 76.1616 178.764 76.1339L176.138 75.6345L165.035 73.5216L164.036 73.7635Z" fill="white"/>
<path d="M164.036 73.7635L175.139 75.8764L178.685 76.5518C178.893 76.5906 179.106 76.5849 179.312 76.5352C179.517 76.4856 179.709 76.3929 179.876 76.2635L182.724 74.0403L181.725 74.2822L179.615 75.928C179.496 76.0205 179.358 76.0866 179.212 76.1221C179.065 76.1576 178.913 76.1616 178.764 76.1339L176.138 75.6345L165.035 73.5216L164.036 73.7635ZM197.202 62.1976L197.31 62.6441L197.802 62.2612L197.202 62.1976ZM164.036 73.7635L175.139 75.8764L178.685 76.5518C178.893 76.5906 179.106 76.5849 179.312 76.5352C179.517 76.4856 179.709 76.3929 179.876 76.2635L182.724 74.0403L181.725 74.2822L179.615 75.928C179.496 76.0205 179.358 76.0866 179.212 76.1221C179.065 76.1576 178.913 76.1616 178.764 76.1339L176.138 75.6345L165.035 73.5216L164.036 73.7635ZM164.036 73.7635L175.139 75.8764L178.685 76.5518C178.893 76.5906 179.106 76.5849 179.312 76.5352C179.517 76.4856 179.709 76.3929 179.876 76.2635L182.724 74.0403L181.725 74.2822L179.615 75.928C179.496 76.0205 179.358 76.0866 179.212 76.1221C179.065 76.1576 178.913 76.1616 178.764 76.1339L176.138 75.6345L165.035 73.5216L164.036 73.7635ZM128.442 67.5048L128.497 67.5462C128.506 67.5311 128.522 67.5175 128.534 67.5017C128.657 67.3739 128.81 67.2786 128.978 67.2243C129.147 67.17 129.327 67.1584 129.501 67.1906L153.69 71.792L164.036 73.7635L175.139 75.8764L178.685 76.5518C178.893 76.5906 179.106 76.5849 179.312 76.5352C179.517 76.4856 179.709 76.3929 179.876 76.2635L182.724 74.0403L181.725 74.2822L179.615 75.928C179.496 76.0205 179.358 76.0866 179.212 76.1221C179.065 76.1576 178.913 76.1616 178.764 76.1339L176.138 75.6345L165.035 73.5216L153.922 71.4079L129.581 66.7758C129.373 66.7346 129.159 66.7392 128.954 66.7893L128.442 67.5048ZM127.86 68.5814L140.389 120.338C140.482 120.721 140.723 121.051 141.059 121.256C141.395 121.461 141.799 121.524 142.181 121.432L232.865 99.4794C233.247 99.3864 233.577 99.1455 233.782 98.8095C233.987 98.4735 234.05 98.0699 233.958 97.6872L221.429 45.9303C221.371 45.6887 221.253 45.4657 221.086 45.2818C220.919 45.0979 220.708 44.9593 220.473 44.8786C220.3 44.8176 220.116 44.79 219.933 44.7973C219.719 44.8035 219.509 44.8587 219.319 44.9587C219.232 45.0002 219.149 45.0515 219.073 45.1115L211.631 50.923L200.822 59.3661L197.201 62.1945L197.202 62.1976L197.199 62.1983L183.92 72.5643L181.725 74.2822L179.615 75.928C179.496 76.0205 179.358 76.0866 179.212 76.1221C179.065 76.1576 178.913 76.1616 178.764 76.1339L176.138 75.6345L165.035 73.5216L153.922 71.4079L129.581 66.7758C129.373 66.7346 129.159 66.7392 128.954 66.7893C128.677 66.8569 128.425 67.0027 128.229 67.2091C128.154 67.2902 128.087 67.3786 128.029 67.4729C127.829 67.8058 127.768 68.2041 127.86 68.5814ZM128.273 68.4814C128.236 68.3289 128.234 68.17 128.266 68.0163C128.299 67.8627 128.365 67.7183 128.46 67.5937C128.469 67.5753 128.481 67.5591 128.497 67.5462C128.506 67.5311 128.522 67.5175 128.534 67.5017C128.657 67.3739 128.81 67.2786 128.978 67.2243C129.147 67.17 129.327 67.1584 129.501 67.1906L153.69 71.792L164.036 73.7635L175.139 75.8764L178.685 76.5518C178.893 76.5906 179.106 76.5849 179.312 76.5352C179.517 76.4856 179.709 76.3929 179.876 76.2635L182.724 74.0403L184.525 72.6332L197.31 62.6441L197.802 62.2612L200.82 59.9035L211.567 51.5107L219.337 45.4432C219.455 45.3511 219.591 45.2852 219.737 45.2499C219.777 45.2399 219.819 45.2331 219.86 45.2296C219.897 45.223 219.934 45.2194 219.97 45.219C220.095 45.2179 220.218 45.238 220.335 45.2786C220.503 45.3369 220.653 45.4362 220.772 45.5673C220.892 45.6985 220.976 45.8574 221.019 46.0296L233.548 97.7865C233.581 97.9222 233.587 98.063 233.565 98.2009C233.544 98.3388 233.495 98.4711 233.423 98.5902C233.35 98.7094 233.255 98.813 233.142 98.8952C233.029 98.9774 232.901 99.0366 232.765 99.0693L142.082 121.022C141.809 121.088 141.52 121.042 141.28 120.895C141.04 120.748 140.868 120.512 140.802 120.238L128.273 68.4814ZM164.036 73.7635L175.139 75.8764L178.685 76.5518C178.893 76.5906 179.106 76.5849 179.312 76.5352C179.517 76.4856 179.709 76.3929 179.876 76.2635L182.724 74.0403L181.725 74.2822L179.615 75.928C179.496 76.0205 179.358 76.0866 179.212 76.1221C179.065 76.1576 178.913 76.1616 178.764 76.1339L176.138 75.6345L165.035 73.5216L164.036 73.7635ZM164.036 73.7635L175.139 75.8764L178.685 76.5518C178.893 76.5906 179.106 76.5849 179.312 76.5352C179.517 76.4856 179.709 76.3929 179.876 76.2635L182.724 74.0403L181.725 74.2822L179.615 75.928C179.496 76.0205 179.358 76.0866 179.212 76.1221C179.065 76.1576 178.913 76.1616 178.764 76.1339L176.138 75.6345L165.035 73.5216L164.036 73.7635ZM164.036 73.7635L175.139 75.8764L178.685 76.5518C178.893 76.5906 179.106 76.5849 179.312 76.5352C179.517 76.4856 179.709 76.3929 179.876 76.2635L182.724 74.0403L181.725 74.2822L179.615 75.928C179.496 76.0205 179.358 76.0866 179.212 76.1221C179.065 76.1576 178.913 76.1616 178.764 76.1339L176.138 75.6345L165.035 73.5216L164.036 73.7635Z" fill="#3F3D56"/>
<path d="M209.23 89.3109C209.026 88.4628 209.166 87.5683 209.62 86.8237C210.075 86.079 210.806 85.545 211.654 85.3388L223.099 82.5681C223.946 82.3662 224.838 82.5082 225.581 82.963C226.323 83.4179 226.855 84.1484 227.06 84.9946C227.265 85.8408 227.126 86.7337 226.674 87.4778C226.222 88.2218 225.493 88.7562 224.647 88.964L213.202 91.7347C212.354 91.939 211.459 91.7986 210.715 91.3442C209.97 90.8898 209.436 90.1586 209.23 89.3109Z" fill="#6C63FF"/>
<path d="M82.7447 79.699C84.3115 79.699 85.5816 78.4289 85.5816 76.8621C85.5816 75.2954 84.3115 74.0253 82.7447 74.0253C81.178 74.0253 79.9078 75.2954 79.9078 76.8621C79.9078 78.4289 81.178 79.699 82.7447 79.699Z" fill="white"/>
</g>
<defs>
<clipPath id="clip0_3_140">
<rect width="233.637" height="200" fill="white" transform="translate(0.363037 0.266357)"/>
</clipPath>
</defs>
</svg>
